<svg xmlns="http://www.w3.org/2000/svg" xmlns:xlink="http://www.w3.org/1999/xlink" width="100%" height="100%" version="1.1" viewBox="0 0 30 30" xml:space="preserve" style="fill-rule:evenodd;clip-rule:evenodd;stroke-linejoin:round;stroke-miterlimit:2"><g transform="matrix(1,0,0,1,-351,0)"><g id="fewshot" transform="matrix(1,0,0,1,351,0)"><rect width="30" height="30" x="0" y="0" style="fill:none"/><g><path d="M371.684,20.638L356.525,20.638L356.525,24.438L371.684,24.427L375.474,22.49L371.684,20.638ZM375.474,14.911L371.684,13.058L356.525,13.058L356.525,16.858L371.684,16.848L375.474,14.911ZM371.684,5.479L356.525,5.479L356.525,9.279L371.684,9.279L375.474,7.331L371.684,5.479Z" transform="matrix(1,0,0,1,-351,0)" style="fill:#fff"/></g></g></g></svg>